<svg width="300" height="240" enable-background="new 0 0 32 32" version="1.1" viewBox="0 0 300 240" xml:space="preserve" xmlns="http://www.w3.org/2000/svg" ><g transform="matrix(9.375 0 0 8.5714 0 -17.143)" clip-rule="evenodd" fill-rule="evenodd"><path d="m11.423 6.8826c-5.963 0-7.9685 4.5367-7.9685 8.3307 0 0.276 0.224 0.5 0.5 0.5s0.5-0.224 0.5-0.5c0-3.196 1.6415-7.3307 6.9685-7.3307 0.275 0 0.5-0.224 0.5-0.5s-0.224-0.5-0.5-0.5z"/><path d="m16 2c-8.837 0-16 5.373-16 12 0 4.127 2.779 7.766 7.008 9.926 0 0.027-8e-3 0.045-8e-3 0.074 0 1.793-1.339 3.723-1.928 4.736h2e-3c-0.047 0.11-0.074 0.231-0.074 0.358 0 0.5 0.405 0.906 0.906 0.906 0.094 0 0.259-0.025 0.255-0.014 3.125-0.512 6.069-3.383 6.753-4.215 0.999 0.147 2.029 0.229 3.086 0.229 8.835 0 16-5.373 16-12s-7.164-12-16-12zm0 22c-0.917 0-1.858-0.07-2.796-0.207-0.097-0.016-0.194-0.021-0.29-0.021-0.594 0-1.163 0.264-1.546 0.73-0.428 0.521-1.646 1.684-3.085 2.539 0.39-0.895 0.695-1.898 0.716-2.932 6e-3 -0.064 9e-3 -0.129 9e-3 -0.184 0-0.752-0.421-1.439-1.09-1.781-3.706-1.892-5.918-4.937-5.918-8.144 0-5.514 6.28-10 14-10 7.718 0 14 4.486 14 10s-6.281 10-14 10z"/></g><text transform="scale(.94086 1.0629)" x="159.26096" y="91.580254" fill="#000000" font-family="sans-serif" font-size="124.7px" letter-spacing="0px" stroke-width="11.691px" text-align="center" text-anchor="middle" word-spacing="0px" style="line-height:9.63835812px" xml:space="preserve"><tspan x="159.26096" y="91.580254" fill="#000000" font-family="sans-serif" font-size="31.176px" stroke-width="11.691px" text-align="center" text-anchor="middle" style="line-height:9.63835812px">Made in EU</tspan></text>
<text transform="scale(.97552 1.0251)" x="146.70415" y="161.08513" fill="#ffffff" font-family="sans-serif" font-size="25.702px" letter-spacing="0px" stroke-width="9.6384px" word-spacing="0px" style="line-height:128.51144409px" xml:space="preserve"><tspan x="146.70415" y="161.08513" font-size="12.851px" font-weight="bold" stroke-width="9.6384px">lb</tspan></text>
<g transform="translate(48.796 -275)"><path d="m101.22 388.43 0.9656 2.9881 3.1289-8e-3 -2.5363 1.8488 0.97389 3.0048-2.5363-1.8571-2.5404 1.8571 0.97389-3.0048-2.5363-1.853h3.1372z"/><path d="m114.17 391.93 0.9656 2.9964 3.1372 8e-3 -2.5446 1.8613 0.97389 2.9964-2.5363-1.8571-2.5404 1.8571 0.97389-2.9964-2.5363-1.8613h3.1289z"/><path d="m123.65 401.48 0.96146 2.9965h3.1247l-2.5446 1.8613 0.96974 2.9964-2.5363-1.853-2.5363 1.853 0.97389-2.9964-2.5446-1.8613h3.1289z"/><path d="m127.12 414.51 0.96146 2.9881h3.1247l-2.5446 1.8571 0.96975 3.0006-2.5363-1.853-2.5363 1.853 0.97389-3.0006-2.5446-1.8571h3.1206z"/><path d="m123.65 427.55 0.96561 2.9798 3.1289-4e-3 -2.5363 1.853 0.96975 3.0048-2.5363-1.8571-2.5363 1.8571 0.97389-2.9881-2.5446-1.878 3.1289-8e-3z"/><path d="m114.17 437.09 0.9656 2.9798 3.1372-4e-3 -2.5446 1.853 0.96975 3.0048-2.5363-1.8571-2.5363 1.8571 0.9739-2.9964-2.5446-1.8613 3.1289-8e-3z"/><path d="m101.22 440.59 0.9656 2.9881 3.1372-8e-3 -2.5446 1.8655 0.97389 3.0006-2.5363-1.8613-2.5404 1.8571 0.97389-2.9964-2.5363-1.8655h3.1289z"/><path d="m88.27 437.09 0.95732 2.9798 3.1455-4e-3 -2.5446 1.853 0.96976 3.0048-2.5363-1.8571-2.5446 1.8571 0.97388-2.9964-2.5363-1.8613 3.1289-8e-3z"/><path d="m78.796 427.55 0.96561 2.9798 3.1413-4e-3 -2.5404 1.853 0.96975 3.0048-2.5446-1.8571-2.5446 1.8571 0.9739-2.9965-2.5363-1.8613 3.1289-8e-3z"/><path d="m75.335 414.51 0.95732 2.9881h3.1206l-2.5446 1.8571 0.9739 3.0006-2.5363-1.853-2.5404 1.853 0.97389-3.0006-2.5363-1.8571h3.1289z"/><path d="m78.796 401.48 0.96561 2.9965h3.1372l-2.5363 1.8613 0.96975 2.9964-2.5446-1.853-2.5446 1.853 0.9739-2.9964-2.5363-1.8613h3.1289z"/><path d="m88.278 391.93 0.96561 2.9964 3.1372 8e-3 -2.5363 1.8613 0.96975 2.9881-2.5446-1.853-2.5445 1.853 0.97389-2.9965-2.5363-1.8613h3.1289z"/></g></svg>
