<?xml version="1.0" encoding="UTF-8" standalone="no"?>
<svg
   xmlns:dc="http://purl.org/dc/elements/1.1/"
   xmlns:cc="http://creativecommons.org/ns#"
   xmlns:rdf="http://www.w3.org/1999/02/22-rdf-syntax-ns#"
   xmlns:svg="http://www.w3.org/2000/svg"
   xmlns="http://www.w3.org/2000/svg"
   xmlns:sodipodi="http://sodipodi.sourceforge.net/DTD/sodipodi-0.dtd"
   xmlns:inkscape="http://www.inkscape.org/namespaces/inkscape"
   width="255.96"
   height="123.73"
   version="1.1"
   viewBox="0 0 255.96 123.73"
   id="svg887"
   sodipodi:docname="toytruck-logo.svg"
   inkscape:version="0.92.2 2405546, 2018-03-11">
  <metadata
     id="metadata893">
    <rdf:RDF>
      <cc:Work
         rdf:about="">
        <dc:format>image/svg+xml</dc:format>
        <dc:type
           rdf:resource="http://purl.org/dc/dcmitype/StillImage" />
      </cc:Work>
    </rdf:RDF>
  </metadata>
  <defs
     id="defs891">
    <filter
       inkscape:collect="always"
       style="color-interpolation-filters:sRGB"
       id="filter2104"
       x="-0.0065984403"
       width="1.0131969"
       y="-0.066156377"
       height="1.1323128">
      <feGaussianBlur
         inkscape:collect="always"
         stdDeviation="0.83729167"
         id="feGaussianBlur2106" />
    </filter>
  </defs>
  <sodipodi:namedview
     pagecolor="#ffffff"
     bordercolor="#666666"
     borderopacity="1"
     objecttolerance="10"
     gridtolerance="10"
     guidetolerance="10"
     inkscape:pageopacity="0"
     inkscape:pageshadow="2"
     inkscape:window-width="2560"
     inkscape:window-height="1043"
     id="namedview889"
     showgrid="false"
     inkscape:object-paths="true"
     inkscape:zoom="1.559848"
     inkscape:cx="151.89451"
     inkscape:cy="100.49507"
     inkscape:window-x="1920"
     inkscape:window-y="0"
     inkscape:window-maximized="1"
     inkscape:current-layer="svg887" />
  <g
     transform="translate(-26.1018,-30.962)"
     id="g885">
    <rect
       transform="matrix(1,0,-0.77867,0.62743,0,0)"
       x="218.36"
       y="198.31"
       width="218.10001"
       height="47.978001"
       id="rect815"
       style="stroke:#000000;stroke-width:0.50033998;stroke-linejoin:bevel" />
    <path
       style="fill:#040305;stroke-width:0.16"
       inkscape:connector-curvature="0"
       id="path817"
       d="m 196.45,137.7 c -5.0282,-0.39553 -9.4438,-2.4282 -13.023,-5.9952 -3.8324,-3.8188 -5.8273,-8.4442 -6.0979,-14.139 -0.26108,-5.4937 1.3027,-10.596 4.4442,-14.499 3.235,-4.0195 7.4169,-6.5609 12.435,-7.5563 1.7572,-0.34862 6.7316,-0.39021 8.5092,-0.07115 8.4932,1.5245 15.017,7.9113 16.821,16.466 0.43369,2.0576 0.47132,6.604 0.0725,8.7542 -1.1835,6.3804 -4.9716,11.577 -10.733,14.723 -3.3338,1.8207 -7.9027,2.6724 -12.427,2.3166 z" />
    <path
       style="fill:#5f5f5f;stroke-width:0.16"
       inkscape:connector-curvature="0"
       id="path819"
       d="m 201.92,136.32 c 7.4698,-1.467 13.559,-6.843 15.911,-14.047 1.6324,-5.0008 1.1871,-9.8316 -1.3654,-14.813 -1.9841,-3.8719 -5.4351,-7.2342 -9.3658,-9.1249 -4.745,-2.2824 -9.5025,-2.622 -14.389,-1.027 -3.1758,1.0367 -5.628,2.5697 -8.1612,5.102 -3.0594,3.0584 -4.8235,6.3109 -5.7763,10.65 -0.39665,1.8063 -0.35921,5.2691 0.0772,7.1378 1.1934,5.1102 3.8465,9.2574 7.85,12.271 4.6114,3.4711 10.092,4.8577 15.22,3.8507 z" />
    <path
       style="fill:#040305;stroke-width:0.16"
       inkscape:connector-curvature="0"
       id="path821"
       d="m 196.4,126.88 c -2.3439,-0.48814 -3.8538,-1.2679 -5.3717,-2.774 -1.3339,-1.3235 -1.8822,-2.1962 -2.5143,-4.0023 -0.38087,-1.0881 -0.42024,-1.4239 -0.42208,-3.6 -0.002,-2.2669 0.0248,-2.4758 0.48259,-3.7671 0.6107,-1.7226 1.4089,-2.9294 2.7507,-4.159 1.9241,-1.7631 4.1228,-2.5459 7.1654,-2.5512 2.1175,-0.004 3.2368,0.21664 4.7894,0.94271 2.4334,1.1379 4.2702,3.1405 5.1531,5.6181 0.36475,1.0236 0.43571,1.5198 0.49144,3.4364 0.0747,2.5692 -0.13837,3.8008 -0.93566,5.4081 -1.8116,3.6523 -5.1178,5.5791 -9.4944,5.5333 -0.97592,-0.0102 -1.9184,-0.0485 -2.0944,-0.0852 z" />
    <path
       style="fill:#ffffff;stroke-width:0.16"
       inkscape:connector-curvature="0"
       id="path823"
       d="m 200.54,125.61 c 2.506,-0.61512 5.2322,-2.8374 6.3634,-5.1871 1.1678,-2.4257 1.3355,-4.1802 0.61187,-6.4 -1.5674,-4.8081 -6.7939,-7.9346 -11.115,-6.6494 -2.279,0.6778 -4.318,2.161 -5.5795,4.0585 -0.85716,1.2893 -1.2741,2.3007 -1.6024,3.8871 -0.21949,1.0604 -0.21952,1.304 0,2.365 0.32768,1.5864 0.74515,2.5996 1.6028,3.8896 1.3882,2.0882 3.815,3.7023 6.2995,4.19 1.2679,0.24888 1.8946,0.2207 3.4201,-0.15373 z" />
    <path
       style="fill:#040305;stroke-width:0.16"
       inkscape:connector-curvature="0"
       id="path825"
       d="m 240.74,137.2 c -10.278,-0.84903 -18.277,-8.9544 -18.972,-19.226 -0.48245,-7.1272 1.462,-12.655 6.0624,-17.235 3.9644,-3.9466 8.3606,-5.8154 14.172,-6.0248 3.8697,-0.13936 6.8627,0.37674 9.8937,1.706 4.312,1.8911 8.2725,5.6878 10.268,9.8433 1.5636,3.2565 2.0611,5.567 2.0669,9.6 0.006,4.0596 -0.47832,6.457 -1.9194,9.504 -3.8762,8.1957 -11.954,12.627 -21.572,11.832 z" />
    <path
       style="fill:#5f5f5f;stroke-width:0.16"
       inkscape:connector-curvature="0"
       id="path827"
       d="m 247.68,135.51 c 3.1013,-0.87349 5.5549,-2.1371 8.0255,-4.1333 3.4529,-2.7898 6.1072,-7.237 7.1086,-11.911 0.45993,-2.1464 0.39993,-5.3664 -0.14074,-7.5524 -1.0531,-4.2578 -2.8013,-7.3017 -5.9346,-10.333 -3.0437,-2.9445 -6.7985,-4.8418 -10.967,-5.5415 -5.6142,-0.94238 -11.922,1.1246 -16.417,5.3793 -4.4975,4.2573 -7.0776,10.655 -6.4825,16.075 0.9003,8.1993 6.4272,15.1 14.132,17.644 2.3652,0.781 3.7005,0.96886 6.4359,0.90545 2.241,-0.0519 2.7693,-0.11829 4.24,-0.5325 z" />
    <path
       style="fill:#040305;stroke-width:0.16"
       inkscape:connector-curvature="0"
       id="path829"
       d="m 239.87,126.18 c -3.1889,-0.83548 -5.8503,-3.2508 -6.9126,-6.2733 -0.46803,-1.3316 -0.69235,-3.0735 -0.59406,-4.6128 0.18734,-2.9336 1.0735,-4.9744 2.9836,-6.871 2.1012,-2.0863 4.1759,-2.88 7.5286,-2.88 3.3527,0 5.4274,0.79364 7.5286,2.88 1.9101,1.8966 2.7963,3.9374 2.9836,6.871 0.33788,5.2908 -2.6877,9.645 -7.5697,10.894 -1.6489,0.42172 -4.3227,0.41837 -5.948,-0.007 z" />
    <path
       style="fill:#ffffff;stroke-width:0.16"
       inkscape:connector-curvature="0"
       id="path831"
       d="m 244.02,125.32 c 1.5131,-0.28989 2.3696,-0.63113 3.6541,-1.4558 3.005,-1.9292 4.8855,-5.4246 4.5741,-8.5021 -0.47437,-4.6874 -4.8294,-8.7546 -9.3741,-8.7546 -4.5447,0 -8.8997,4.0672 -9.3741,8.7546 -0.31144,3.0775 1.569,6.5729 4.5741,8.5021 1.4187,0.91078 2.7857,1.3988 4.6659,1.6657 0.0583,0.008 0.63426,-0.0862 1.28,-0.20991 z" />
    <path
       style="fill:#040305;stroke-width:0.16"
       inkscape:connector-curvature="0"
       id="path833"
       d="m 93.598,136.64 c -2.4904,-0.33275 -5.393,-1.2981 -7.4613,-2.4815 -6.7961,-3.8884 -10.617,-10.615 -10.617,-18.692 0,-3.6324 0.66839,-6.6431 2.1508,-9.6883 2.8197,-5.7922 7.9901,-9.7862 14.524,-11.22 1.9072,-0.4184 7.3134,-0.41498 9.2345,0.0059 4.0788,0.89347 7.3633,2.5943 10.206,5.2851 3.1888,3.0185 5.2221,6.7188 6.1242,11.145 0.45137,2.2149 0.45137,6.7281 0,8.943 -0.89232,4.3787 -2.6296,7.6268 -5.7465,10.744 -2.9172,2.9172 -5.838,4.5538 -10.015,5.6121 -1.0345,0.26207 -1.9091,0.33351 -4.56,0.37245 -1.804,0.0265 -3.532,0.0145 -3.84,-0.0266 z" />
    <path
       style="fill:#5f5f5f;stroke-width:0.16"
       inkscape:connector-curvature="0"
       id="path835"
       d="m 101.29,135.09 c 3.8864,-1.0273 6.7198,-2.6592 9.6015,-5.5301 3.1101,-3.0984 5.0114,-6.6794 5.8384,-10.996 1.1473,-5.9892 -1.325,-12.96 -6.25,-17.622 -4.52,-4.2786 -11.064,-6.4033 -16.588,-5.3861 -7.5083,1.3826 -13.61,6.5637 -16.102,13.674 -0.87129,2.4852 -1.0751,3.6928 -1.0667,6.32 0.0066,2.0617 0.06918,2.6468 0.44384,4.1506 1.2931,5.1904 4.3098,9.5308 8.6349,12.424 2.4476,1.6372 4.6093,2.5518 7.5281,3.1853 2.1116,0.45829 5.7792,0.35733 7.96,-0.21912 z" />
    <path
       style="fill:#040305;stroke-width:0.16"
       inkscape:connector-curvature="0"
       id="path837"
       d="m 93.793,125.7 c -3.4244,-0.8972 -5.9606,-3.247 -7.0775,-6.5572 -0.48286,-1.4311 -0.61086,-4.5514 -0.25598,-6.24 0.71645,-3.409 3.1644,-6.1907 6.4983,-7.3842 0.93298,-0.33399 1.3199,-0.37248 3.76,-0.37407 2.5396,-0.002 2.7961,0.0261 3.8682,0.4181 2.3104,0.84484 4.4145,2.652 5.4368,4.6695 0.85324,1.6838 1.0464,2.484 1.1278,4.6706 0.13938,3.7469 -0.62695,5.9031 -2.9012,8.1632 -1.458,1.4489 -2.6536,2.1258 -4.6624,2.6396 -1.6443,0.42054 -4.1769,0.41809 -5.7939,-0.006 z" />
    <path
       style="fill:#ffffff;stroke-width:0.16"
       inkscape:connector-curvature="0"
       id="path839"
       d="m 99.495,124.41 c 1.3377,-0.45865 3.1699,-1.6989 4.1883,-2.8352 1.0285,-1.1476 1.969,-3.082 2.3302,-4.7925 0.26537,-1.2568 0.26524,-1.3827 -0.003,-2.6295 -0.84841,-3.9481 -3.7294,-6.9239 -7.6233,-7.8742 -1.355,-0.33068 -2.0768,-0.32314 -3.4446,0.036 -3.3028,0.86712 -6.0807,3.3872 -7.1139,6.4536 -0.57883,1.7178 -0.66902,2.6828 -0.38211,4.0884 0.79136,3.8772 3.8968,7.0726 7.6709,7.8928 1.0208,0.22186 3.2428,0.0496 4.3773,-0.33939 z" />
    <path
       style="fill:#040305;stroke-width:0.16"
       inkscape:connector-curvature="0"
       id="path841"
       d="m 119.88,120.46 c -0.32404,-0.0524 -0.36014,-0.14904 -0.36142,-0.96713 -0.0133,-8.4986 -0.43102,-10.303 -4.0262,-17.389 -0.76944,-1.5166 -1.895,-3.001 -3.1724,-4.1836 -0.89252,-0.82635 -4.0442,-2.5094 -6.5233,-3.4836 -3.4777,-1.3666 -4.8674,-1.5982 -9.6367,-1.6062 -3.7864,-0.0064 -3.9827,0.009 -5.76,0.45024 -4.827,1.1984 -5.4336,1.541 -9.7674,5.5156 -3.184,2.9201 -4.63,5.1632 -6.3097,9.7875 -0.33563,0.924 -0.76213,1.8409 -0.94779,2.0376 -0.52264,0.55365 -1.6542,0.70056 -2.6935,0.34969 -0.771,-0.26028 -1.5953,-0.29087 -8.448,-0.31347 -4.1765,-0.0138 -7.8405,-0.0145 -8.1423,-0.002 -0.39095,0.0166 -0.6623,-0.0903 -0.94401,-0.37203 l -0.39535,-0.39534 0.26966,-2.3724 c 0.14831,-1.3048 0.34358,-2.9124 0.43394,-3.5724 0.09036,-0.66 0.23025,-3.54 0.31087,-6.4 0.17303,-6.1382 0.35797,-8.6235 0.76933,-10.339 0.60651,-2.5295 1.77,-6.2401 2.1934,-6.9951 1.3206,-2.355 4.7414,-4.7837 8.5509,-6.071 0.66,-0.22302 1.596,-0.48341 2.08,-0.57865 2.5035,-0.49262 11.857,-0.65209 19.6,-0.33417 6.5822,0.27026 7.9371,0.25373 10.025,-0.12229 2.1402,-0.38546 2.5772,-0.57812 3.863,-1.7031 1.4768,-1.2921 2.3579,-2.6398 4.4092,-6.7445 1.054,-2.109 2.1203,-4.0969 2.3696,-4.4174 0.24931,-0.32052 1.0293,-1.4277 1.7333,-2.4603 4.5619,-6.6914 5.212,-7.3716 9.6,-10.044 0.528,-0.32153 1.32,-0.70417 1.76,-0.85031 0.44,-0.14615 0.872,-0.32108 0.96,-0.38874 0.28398,-0.21834 2.5177,-0.60391 4.08,-0.70426 0.836,-0.0537 3.572,-0.23527 6.08,-0.4035 6.5661,-0.44042 11.083,-0.56406 12.192,-0.33374 1.0422,0.21636 1.7163,0.83359 2.3773,2.1768 l 0.39027,0.79332 -0.0107,18.08 c -0.006,9.944 -0.0584,19.016 -0.11676,20.16 -0.10385,2.0369 -0.25258,14.314 -0.29655,24.48 -0.0213,4.9253 -0.0385,5.1947 -0.45347,7.0836 -0.30551,1.3908 -0.52048,2.0311 -0.73692,2.1949 -0.22333,0.16901 -0.80089,0.2339 -2.1456,0.24107 -6.6221,0.0353 -22.508,0.18858 -22.64,0.21846 -0.088,0.0199 -0.322,0.01 -0.52,-0.0221 z" />
    <path
       style="fill:#c00c17;stroke-width:0.16"
       inkscape:connector-curvature="0"
       id="path843"
       d="m 144.18,107.62 c 0.0568,-4.268 0.2265,-14.564 0.37721,-22.88 0.36074,-19.904 0.40238,-34.879 0.0994,-35.76 -0.43206,-1.256 -0.82883,-1.9936 -1.1709,-2.1766 -0.6788,-0.36329 -11.812,0.0842 -18.108,0.72784 -2.6424,0.27012 -2.9252,0.36668 -5.6204,1.9192 -2.0647,1.1893 -2.3945,1.4427 -4.367,3.3555 -0.99315,0.96311 -2.0341,2.1721 -2.6223,3.0456 -0.53638,0.79666 -1.282,1.8805 -1.6568,2.4085 -1.1217,1.5799 -3.4155,5.471 -4.4208,7.4992 -1.3337,2.6907 -2.0818,3.9397 -3.5197,5.8766 -1.2234,1.6479 -1.2893,1.7074 -2.3362,2.1059 -1.2311,0.46868 -2.2932,0.7986 -3.5572,1.105 -1.1338,0.27482 -10.316,0.27713 -14.08,0.0035 -3.4734,-0.25248 -12.897,0.11138 -15.547,0.6003 -2.4855,0.45856 -4.7757,1.4067 -6.4519,2.671 -1.3065,0.98544 -1.3978,1.0961 -2.0675,2.5047 -0.9144,1.9232 -1.8817,4.79 -2.3973,7.1051 -0.35463,1.5922 -0.70389,6.027 -0.79767,10.129 -0.04639,2.0291 -0.21,4.4572 -0.39889,5.92 -0.17613,1.364 -0.37055,3.0373 -0.43204,3.7184 l -0.11181,1.2384 7.5108,-1e-4 c 6.1817,-9e-5 7.6506,0.0419 8.3003,0.23749 0.98243,0.29567 0.9952,0.28391 1.7316,-1.5942 1.5581,-3.9739 3.4785,-6.9956 5.8367,-9.1837 1.7692,-1.6417 4.7885,-4.0013 6.2517,-4.886 1.3989,-0.84573 4.5269,-1.7041 7.3727,-2.023 2.4096,-0.27007 6.9998,-0.18737 8.9259,0.16083 2.2958,0.41502 4.1801,0.87794 5.2195,1.2823 1.1164,0.43428 5.278,2.295 5.4382,2.4314 0.097,0.08264 0.61656,0.46523 1.1546,0.85022 0.98369,0.70388 3.8019,3.7758 4.5576,4.968 0.44793,0.70662 2.146,5.0768 2.7043,6.96 0.85905,2.8973 1.388,5.0694 1.5194,6.24 0.0642,0.572 0.14917,1.0945 0.18872,1.1611 0.0395,0.0666 5.0894,0.1026 11.222,0.08 l 11.15,-0.041 z" />
    <path
       style="fill:#040305;stroke-width:0.16"
       inkscape:connector-curvature="0"
       id="path845"
       d="m 108.51,75.357 c -1.2916,-0.63658 -1.1471,-1.539 0.71296,-4.4531 2.0314,-3.1824 5.2751,-7.9628 6.7314,-9.9203 0.68334,-0.91852 2.1768,-3.0134 3.3188,-4.6553 2.2366,-3.2157 2.8474,-3.8265 4.3793,-4.3797 0.49743,-0.17961 1.036,-0.40225 1.1968,-0.49476 0.54182,-0.31167 4.3272,-0.94049 7.1403,-1.1861 1.536,-0.13412 4.02,-0.24386 5.52,-0.24386 l 2.7273,1e-5 0.48,0.59999 0.48,0.6 0.0467,11.878 c 0.0325,8.2646 -0.006,11.976 -0.12563,12.2 -0.17096,0.31945 -0.30062,0.32201 -16.127,0.31839 -14.391,-0.0033 -16.006,-0.02909 -16.481,-0.2633 z" />
    <path
       style="fill:#ffffff;stroke-width:0.16"
       inkscape:connector-curvature="0"
       id="path847"
       d="M 138.96,63.189 V 52.593 l -0.68483,-0.68462 -5.0299,0.17183 c -4.7424,0.16201 -5.1069,0.1961 -6.3776,0.59662 -1.8707,0.58965 -2.8268,1.1077 -3.6339,1.969 -0.85622,0.91374 -4.1527,5.2508 -5.3042,6.9785 -0.4692,0.704 -1.0147,1.46 -1.2122,1.68 -1.4944,1.6644 -6.6374,9.6333 -6.6374,10.284 0,0.26137 0.83133,0.27499 14.44,0.23649 l 14.44,-0.04085 z" />
    <g
       id="g863"
       style="fill:#040305;stroke-width:0.16">
      <path
         d="m 70.398,116.96 c -4.7547,-0.1701 -9.0859,-0.43252 -10.386,-0.62928 -0.84376,-0.1277 -2.2541,-0.33755 -3.1341,-0.46633 -4.2744,-0.6255 -4.5253,-0.68219 -5.6607,-1.2788 -2.2152,-1.164 -2.9988,-2.3589 -3.1555,-4.8113 -0.09427,-1.4758 -0.07256,-1.6525 0.30825,-2.507 0.51926,-1.1652 1.1016,-1.5116 1.5695,-0.9338 0.30095,0.37165 0.29983,0.38253 -0.11122,1.0839 -0.46485,0.79321 -0.44104,1.468 0.0946,2.6814 0.48433,1.0971 0.95885,1.4514 2.6665,1.9907 1.3954,0.44069 1.966,0.52114 5.1686,0.72862 1.98,0.12827 4.968,0.27486 6.64,0.32574 1.672,0.0509 3.472,0.12346 4,0.1613 0.528,0.0378 1.716,0.11585 2.64,0.17336 2.1928,0.13648 2.4,0.26442 2.4,1.4818 0,0.80444 -0.05792,0.9804 -0.44,1.3368 -0.48108,0.44869 -1.0644,0.78765 -1.2695,0.73769 -0.07178,-0.0175 -0.67051,-0.0511 -1.3305,-0.0747 z"
         id="path851"
         inkscape:connector-curvature="0" />
      <path
         d="m 155.5,112.71 c -0.46539,-0.28303 -0.4922,-0.3497 -0.41522,-1.0327 0.0453,-0.40158 0.18014,-0.79214 0.29973,-0.86791 0.11958,-0.0758 0.75742,-0.1403 1.4174,-0.1434 1.9994,-0.009 11.937,-0.29958 14.2,-0.41464 1.6904,-0.086 2.12,-0.15457 2.12,-0.33861 0,-0.17835 3.7201,-7.6257 3.9257,-7.8588 0.10112,-0.11469 0.8327,0.47608 1.0178,0.82186 0.21216,0.39643 0.38652,-0.0144 -2.9158,6.8709 l -1.2086,2.52 -0.68954,0.002 c -4.3899,0.014 -14.881,0.36469 -15.932,0.53249 -1.2293,0.1963 -1.3572,0.18987 -1.8197,-0.0914 z"
         id="path853"
         inkscape:connector-curvature="0" />
      <path
         d="m 155.9,107.92 c -0.29854,-0.48305 0.0613,-2.1061 0.50465,-2.2762 0.1209,-0.0464 3.4843,-0.13478 7.4741,-0.19642 l 7.2543,-0.11207 0.35121,0.4465 c 0.19317,0.24558 0.35122,0.63903 0.35122,0.87435 0,0.93992 0.22141,0.90518 -7.6,1.1925 -8.4553,0.31057 -8.1891,0.30829 -8.3355,0.0714 z"
         id="path855"
         inkscape:connector-curvature="0" />
      <path
         d="m 219.52,103.47 c -0.45176,-0.11078 -0.95936,-0.97221 -0.95974,-1.6288 -1.5e-4,-0.23094 -0.10359,-0.71276 -0.22988,-1.0707 -0.26859,-0.76126 -1.9448,-3.2953 -2.5516,-3.8573 -0.47275,-0.4379 -0.53432,-0.83703 -0.17509,-1.1352 0.63326,-0.52557 2.9295,1.5859 3.5524,3.2665 0.14504,0.39133 0.37625,0.85617 0.51382,1.033 0.24175,0.31068 0.32987,0.24402 2.6275,-1.9875 1.3076,-1.2699 2.4668,-2.309 2.5761,-2.309 0.46731,0 1.208,0.3721 1.2254,0.61565 0.0545,0.75981 -0.5717,1.7835 -1.4202,2.3217 -1.3547,0.85929 -3.8788,3.5272 -3.8788,4.0998 0,0.3018 -0.87994,0.74984 -1.28,0.65174 z"
         id="path857"
         inkscape:connector-curvature="0" />
      <path
         d="m 166.7,98.803 c -0.30902,-0.30902 -0.38027,-0.72804 -0.17614,-1.0358 0.0811,-0.12226 2.3101,-0.21263 7.1858,-0.29133 6.9697,-0.1125 7.0707,-0.10962 7.24,0.20672 0.28048,0.52407 0.20453,0.9775 -0.1883,1.1243 -0.198,0.074 -3.3756,0.17056 -7.0614,0.21463 -6.387,0.0764 -6.7154,0.0661 -7,-0.21847 z"
         id="path859"
         inkscape:connector-curvature="0" />
      <path
         d="m 161.6,94.24 c -1.0273,-0.18784 -1.452,-0.44351 -2.2615,-1.3613 -0.47219,-0.53535 -1.0599,-1.1985 -1.306,-1.4737 -1.1119,-1.2432 -2.4181,-3.1551 -2.8545,-4.1781 -0.74605,-1.7492 -1.0916,-4.4729 -1.259,-9.9222 -0.28594,-9.3128 -1.5803,-22.744 -2.7291,-28.32 -0.25385,-1.232 -0.50735,-2.538 -0.56333,-2.9021 -0.24392,-1.5868 -4.4276,-5.1266 -6.7795,-5.736 -1.5833,-0.41028 -4.7823,-0.54044 -14.567,-0.5927 -10.33,-0.0552 -9.5099,-0.12368 -14.704,1.2285 -3.175,0.82657 -3.1823,0.8281 -4.6402,0.97175 -1.1868,0.11694 -1.5878,-0.0179 -2.5133,-0.84496 -1.3767,-1.2303 -2.4197,-3.7289 -2.1391,-5.1243 0.16016,-0.79648 0.73081,-1.9322 1.2537,-2.4953 0.89053,-0.95886 3.8897,-2.1171 5.8436,-2.2567 0.62647,-0.0448 10.512,-0.12394 21.968,-0.17592 l 20.828,-0.0945 5.0115,2.5116 c 2.7564,1.3814 5.1915,2.6378 5.4115,2.7921 0.83847,0.58794 9.0824,4.6183 9.9477,4.8634 0.87451,0.24763 3.0097,0.43247 11.252,0.97408 2.112,0.13878 5.2557,0.35914 6.986,0.48969 3.5244,0.26593 9.3681,0.47204 20.134,0.71014 4.004,0.0885 9.44,0.23339 12.08,0.32186 6.8906,0.23091 12.896,0.22799 22.586,-0.011 7.2817,-0.17956 8.6046,-0.17737 9.1881,0.0152 1.0695,0.35295 1.6124,0.803 1.8281,1.5152 0.10657,0.352 1.725,4.348 3.5964,8.88 1.8715,4.532 3.8167,9.248 4.3228,10.48 0.50605,1.232 1.2167,2.9327 1.5792,3.7794 0.36246,0.84669 0.65904,1.6857 0.65904,1.8644 0,0.43957 -14.701,15.286 -18.421,18.604 l -2.8211,2.5157 -3.4189,0.09703 c -1.8804,0.05337 -6.8389,0.13374 -11.019,0.1786 -4.18,0.04486 -10.732,0.11729 -14.56,0.16096 -3.828,0.04367 -15.053,0.12319 -24.946,0.17672 l -17.986,0.09733 -2.1745,0.53288 c -1.196,0.29309 -2.8585,0.71449 -3.6945,0.93646 -0.836,0.22197 -2.024,0.47432 -2.64,0.56079 -1.2689,0.17812 -5.8721,0.34239 -6.48,0.23124 z"
         id="path861"
         inkscape:connector-curvature="0" />
    </g>
    <g
       id="g883"
       style="fill:#5165ae;stroke-width:0.16">
      <path
         d="m 171.36,91.581 2.32,-0.5322 0.1087,-3.5122 c 0.0598,-1.9317 0.22175,-7.6162 0.35992,-12.632 0.13818,-5.016 0.32368,-11.424 0.41224,-14.24 0.4052,-12.885 0.48383,-16.779 0.3416,-16.922 -0.48233,-0.48235 -10.194,-5.8233 -14.662,-8.0637 l -5.28,-2.6473 -14,0.10338 c -21.639,0.1598 -27.174,0.23941 -27.894,0.40126 -0.36607,0.0822 -0.86514,0.19136 -1.109,0.24259 -0.41862,0.0879 -3.5527,2.4714 -4.1566,3.161 -0.154,0.17588 -0.28,0.53492 -0.28,0.79787 0,0.91722 0.91185,2.2958 1.6,2.4189 0.46124,0.0825 3.3693,-0.53742 6.72,-1.4326 l 2.32,-0.61983 11.52,0.005 c 12.758,0.005 11.783,-0.0631 15.644,1.0951 1.6669,0.50001 2.2352,0.84076 4.3532,2.6102 1.7064,1.4256 2.71,2.7698 2.8931,3.8747 0.0524,0.31644 0.268,1.5113 0.47907,2.6553 0.39127,2.1207 0.77118,4.8691 0.951,6.88 0.0551,0.616 0.16594,1.48 0.24634,1.92 0.0804,0.44 0.25633,2.384 0.39096,4.32 0.13463,1.936 0.31428,4.24 0.39922,5.12 0.0849,0.88 0.26376,4.66 0.39737,8.4 0.13362,3.74 0.27583,7.16 0.31604,7.6 0.0402,0.44 0.36356,1.6863 0.71857,2.7696 0.77778,2.3733 1.707,3.8351 3.5969,5.6586 1.3318,1.2849 1.3598,1.2981 3.823,1.7917 0.36436,0.07302 5.4512,-0.75982 7.4714,-1.2233 z"
         id="path865"
         inkscape:connector-curvature="0" />
      <path
         d="m 176.89,90.335 c 0.33044,-0.12133 0.33524,-0.20738 0.44293,-7.9365 0.12503,-8.9734 0.36435,-23.879 0.5108,-31.814 l 0.10042,-5.44 -0.61259,-0.18818 c -0.33693,-0.10349 -0.64532,-0.15546 -0.68528,-0.11548 -0.0836,0.0836 -0.10554,0.58776 -0.23917,5.5037 -0.24394,8.9727 -0.58787,21.872 -0.72743,27.28 -0.084,3.256 -0.20121,7.5191 -0.26044,9.4735 l -0.10768,3.5535 0.62219,-0.09706 c 0.34221,-0.05339 0.77251,-0.15226 0.95625,-0.21972 z"
         id="path867"
         inkscape:connector-curvature="0" />
      <path
         d="m 197.02,90.094 c 0.0545,-0.14194 0.16984,-3.2217 0.2564,-6.8438 0.0866,-3.6222 0.23011,-8.5298 0.31899,-10.906 0.0889,-2.376 0.26827,-8.1 0.39862,-12.72 0.13037,-4.62 0.27696,-9.3124 0.32579,-10.428 0.0811,-1.8514 0.064,-2.0348 -0.19644,-2.111 -0.15687,-0.0459 -1.1492,-0.16121 -2.2052,-0.25632 -1.056,-0.0951 -2.568,-0.24503 -3.36,-0.33318 -4.7432,-0.52791 -12.715,-1.1699 -12.85,-1.0349 -0.0564,0.0564 -0.18899,4.4001 -0.29469,9.6527 -0.1057,5.2526 -0.26787,12.646 -0.36038,16.43 -0.0925,3.784 -0.21717,9.5233 -0.27703,12.754 l -0.10883,5.8739 1.5857,0.04756 c 0.87213,0.02616 4.9793,0.06663 9.1271,0.08994 6.8151,0.0383 7.5509,0.01753 7.6404,-0.21569 z"
         id="path869"
         inkscape:connector-curvature="0" />
      <path
         d="m 200.56,77.144 c 0.22967,-6.336 0.48093,-12.996 0.55837,-14.8 0.0774,-1.804 0.18274,-4.324 0.23399,-5.6 0.0512,-1.276 0.16755,-3.8191 0.25844,-5.6512 0.18506,-3.7299 0.16684,-3.7412 0.16684,-3.7412 l -1.5905,-0.0475 -0.0969,1.8 c -0.35915,6.6737 -0.48793,10.409 -0.82332,23.88 -0.046,1.848 -0.15269,5.772 -0.23706,8.72 -0.0844,2.948 -0.15362,6.098 -0.15386,7 v 1.64 l 1.1868,-0.0084 c 0.11181,-4.8118 0.35423,-9.2628 0.4972,-13.192 z"
         id="path871"
         inkscape:connector-curvature="0" />
      <path
         d="m 219.7,90.045 c 0.10898,-0.10853 0.28163,-3.6529 0.77648,-15.941 0.17365,-4.312 0.39159,-9.568 0.48431,-11.68 0.16596,-3.7805 0.43016,-10.935 0.4963,-13.44 l 0.0338,-1.28 -4.386,-0.098 c -2.4123,-0.0539 -6.4793,-0.15211 -9.0377,-0.21828 l -4.6517,-0.12029 -0.19466,4.7783 c -0.16653,4.0874 -0.54926,14.413 -1.1438,30.858 -0.0795,2.2 -0.14768,4.7668 -0.15144,5.7041 l -0.007,1.7041 8.84,-0.08336 c 4.862,-0.04585 8.8855,-0.12869 8.9412,-0.1841 z"
         id="path873"
         inkscape:connector-curvature="0" />
      <path
         d="m 222.91,87.864 c 0.11072,-2.1586 0.46864,-14.89 0.7647,-27.2 0.0783,-3.256 0.1918,-7.4913 0.25216,-9.4117 l 0.10978,-3.4917 -1.0815,0.011 -0.10754,1.9324 c -0.0982,1.6808 -0.38785,9.9063 -0.76902,21.84 -0.39494,12.365 -0.43285,18.583 -0.43285,18.583 l 1.2082,0.01934 z"
         id="path875"
         inkscape:connector-curvature="0" />
      <path
         d="m 236.82,90.025 5.5389,-3.2e-4 0.10352,-3.48 c 0.21563,-7.2488 0.42649,-15.075 0.58517,-21.72 0.0904,-3.784 0.2299,-9.22 0.31008,-12.08 0.0802,-2.86 0.0937,-5.2525 0.03,-5.3166 -0.0637,-0.0641 -2.4897,-0.0111 -5.3911,0.1178 -2.9015,0.12893 -6.8414,0.2354 -8.7554,0.23661 -1.914,10e-4 -3.4828,0.0202 -3.4863,0.0422 -0.004,0.022 -0.21672,5.692 -0.47387,12.6 -0.25713,6.908 -0.61632,16.362 -0.79817,21.008 -0.18186,4.6464 -0.28149,8.5275 -0.2214,8.6247 0.0775,0.12546 1.112,0.14648 3.5645,0.07242 1.9004,-0.05739 5.9477,-0.10452 8.9941,-0.10474 z"
         id="path877"
         inkscape:connector-curvature="0" />
      <path
         d="m 245.76,89.757 c 0.0668,-0.07295 0.17075,-5.3886 0.23093,-11.813 0.0602,-6.424 0.1667,-15.892 0.23673,-21.04 0.07,-5.148 0.0922,-9.4539 0.0493,-9.5686 -0.0472,-0.12619 -0.27546,-0.1894 -0.57764,-0.16 l -0.49961,0.0486 -0.10304,4.72 c -0.0567,2.596 -0.18578,7.888 -0.2869,11.76 -0.38347,14.683 -0.61552,26.085 -0.5336,26.218 0.0999,0.16245 1.3066,0.02772 1.4838,-0.16566 z"
         id="path879"
         inkscape:connector-curvature="0" />
      <path
         d="m 248.49,88.925 c 0.6236,-0.40266 16.962,-16.626 17.075,-16.955 0.0449,-0.13102 -1.5125,-3.9471 -3.602,-8.8262 -1.6597,-3.8754 -4.1851,-9.9225 -5.9636,-14.28 l -0.83262,-2.04 -0.58258,8e-4 c -1.4748,0.002 -6.6708,0.34476 -6.7609,0.44589 -0.15298,0.17169 -0.32896,42.113 -0.17671,42.113 0.0728,0 0.45253,-0.20669 0.84376,-0.45931 z"
         id="path881"
         inkscape:connector-curvature="0" />
    </g>
  </g>
  <text
     xml:space="preserve"
     style="font-style:normal;font-variant:normal;font-weight:normal;font-stretch:normal;font-size:10.66666698px;line-height:13.33333302px;font-family:'Hi Melody';-inkscape-font-specification:'Hi Melody';letter-spacing:0px;word-spacing:0px;fill:#5165ae;fill-opacity:1;stroke:none;stroke-width:1px;stroke-linecap:butt;stroke-linejoin:miter;stroke-opacity:1;filter:url(#filter2104)"
     id="text897"
     y="150.01462"
     x="-25.643524"><tspan
       sodipodi:role="line"
       id="tspan895"
       x="-25.643524"
       y="150.01462"
       style="font-size:42.66666794px">www.<tspan
   style="font-size:42.66666794px;fill:#c00c17;fill-opacity:1;stroke:#c00c17;stroke-opacity:1"
   id="tspan2053">Toy-Truck</tspan>.co.uk</tspan></text>
</svg>
