<?xml version="1.0" encoding="UTF-8" standalone="no"?>
<!-- Created with Inkscape (http://www.inkscape.org/) -->

<svg
   xmlns:dc="http://purl.org/dc/elements/1.1/"
   xmlns:cc="http://creativecommons.org/ns#"
   xmlns:rdf="http://www.w3.org/1999/02/22-rdf-syntax-ns#"
   xmlns:svg="http://www.w3.org/2000/svg"
   xmlns="http://www.w3.org/2000/svg"
   xmlns:sodipodi="http://sodipodi.sourceforge.net/DTD/sodipodi-0.dtd"
   xmlns:inkscape="http://www.inkscape.org/namespaces/inkscape"
   version="1.1"
   id="svg869"
   width="255.96416"
   height="123.72569"
   viewBox="0 0 255.96416 123.72569"
   sodipodi:docname="toytruck-logo.svg"
   inkscape:version="0.92.2 2405546, 2018-03-11"
   inkscape:export-filename="/tmp/bitmap.png"
   inkscape:export-xdpi="12.414559"
   inkscape:export-ydpi="12.414559">
  <metadata
     id="metadata875">
    <rdf:RDF>
      <cc:Work
         rdf:about="">
        <dc:format>image/svg+xml</dc:format>
        <dc:type
           rdf:resource="http://purl.org/dc/dcmitype/StillImage" />
        <dc:title></dc:title>
      </cc:Work>
    </rdf:RDF>
  </metadata>
  <defs
     id="defs873" />
  <sodipodi:namedview
     pagecolor="#ffffff"
     bordercolor="#666666"
     borderopacity="1"
     objecttolerance="10"
     gridtolerance="10"
     guidetolerance="10"
     inkscape:pageopacity="0"
     inkscape:pageshadow="2"
     inkscape:window-width="1920"
     inkscape:window-height="1016"
     id="namedview871"
     showgrid="false"
     inkscape:zoom="5.2616585"
     inkscape:cx="129.61206"
     inkscape:cy="56.970016"
     inkscape:window-x="0"
     inkscape:window-y="27"
     inkscape:window-maximized="1"
     inkscape:current-layer="g879"
     inkscape:snap-grids="true"
     inkscape:snap-page="false" />
  <g
     id="g879"
     transform="translate(-26.32983,-30.962148)">
    <rect
       style="fill:#000000;fill-opacity:1;stroke:#000000;stroke-width:0.50033689;stroke-linecap:butt;stroke-linejoin:bevel;stroke-miterlimit:4;stroke-dasharray:none;stroke-dashoffset:0;stroke-opacity:1"
       id="rect1219"
       width="218.10446"
       height="47.978275"
       x="218.36038"
       y="198.31323"
       transform="matrix(1,0,-0.77867234,0.62743079,0,0)" />
    <path
       style="fill:#040305;stroke-width:0.16"
       d="m 196.45106,137.70413 c -5.02823,-0.39553 -9.44378,-2.42818 -13.02348,-5.99522 -3.83235,-3.8188 -5.82728,-8.44424 -6.09788,-14.13854 -0.26108,-5.49369 1.30273,-10.59555 4.44417,-14.49894 3.23495,-4.019547 7.41693,-6.560857 12.43474,-7.556337 1.75721,-0.348615 6.73161,-0.39021 8.50915,-0.07115 8.49318,1.52447 15.01749,7.911317 16.82066,16.466297 0.43369,2.05763 0.47132,6.60396 0.0725,8.75419 -1.18354,6.38035 -4.97155,11.57657 -10.73312,14.72315 -3.33382,1.82071 -7.90266,2.67242 -12.4267,2.31655 z"
       id="path1215"
       inkscape:connector-curvature="0" />
    <path
       style="fill:#5f5f5f;fill-opacity:1;stroke-width:0.16"
       d="m 201.91776,136.32401 c 7.46981,-1.467 13.5592,-6.84296 15.9107,-14.04659 1.63245,-5.00085 1.18714,-9.83162 -1.36545,-14.81299 -1.98408,-3.87191 -5.43507,-7.23415 -9.36578,-9.124927 -4.74496,-2.28245 -9.50251,-2.622017 -14.38878,-1.02698 -3.17578,1.03668 -5.62805,2.56974 -8.16115,5.102017 -3.05936,3.05836 -4.82346,6.31086 -5.77631,10.64989 -0.39665,1.80628 -0.35921,5.26914 0.0772,7.1378 1.19342,5.11024 3.84648,9.25744 7.85004,12.27104 4.61135,3.47107 10.09197,4.85774 15.21954,3.85074 z"
       id="path1213"
       inkscape:connector-curvature="0" />
    <path
       style="fill:#040305;stroke-width:0.16"
       d="m 196.39776,126.88067 c -2.34389,-0.48814 -3.85381,-1.26788 -5.37166,-2.77397 -1.33389,-1.32353 -1.88215,-2.19625 -2.51432,-4.00227 -0.38087,-1.08807 -0.42024,-1.42386 -0.42208,-3.6 -0.002,-2.26691 0.0248,-2.47581 0.48259,-3.76707 0.6107,-1.72263 1.40886,-2.92945 2.75069,-4.15899 1.92411,-1.76309 4.12281,-2.54591 7.16539,-2.55116 2.11753,-0.004 3.23675,0.21664 4.78939,0.94271 2.43341,1.13793 4.27022,3.14052 5.15307,5.61812 0.36475,1.02365 0.43571,1.51981 0.49144,3.43639 0.0747,2.56923 -0.13837,3.80076 -0.93566,5.40814 -1.81162,3.65228 -5.11775,5.57908 -9.49445,5.5333 -0.97592,-0.0102 -1.9184,-0.0485 -2.0944,-0.0852 z"
       id="path1211"
       inkscape:connector-curvature="0" />
    <path
       style="fill:#ffffff;stroke-width:0.16"
       d="m 200.53786,125.61151 c 2.50603,-0.61512 5.23222,-2.83735 6.36345,-5.18708 1.16779,-2.42568 1.33552,-4.1802 0.61187,-6.4 -1.56745,-4.80808 -6.79392,-7.93461 -11.11542,-6.64937 -2.27901,0.6778 -4.31798,2.16095 -5.5795,4.05854 -0.85716,1.28934 -1.27407,2.30066 -1.6024,3.88708 -0.21949,1.06043 -0.21952,1.30401 0,2.36503 0.32768,1.5864 0.74515,2.59955 1.60275,3.88955 1.38819,2.08815 3.81499,3.70228 6.2995,4.18998 1.26787,0.24888 1.89463,0.2207 3.4201,-0.15373 z"
       id="path1209"
       inkscape:connector-curvature="0" />
    <path
       style="fill:#040305;stroke-width:0.16"
       d="m 240.73504,137.2007 c -10.27842,-0.84903 -18.27658,-8.95435 -18.97189,-19.22608 -0.48245,-7.12722 1.46199,-12.65501 6.06242,-17.23479 3.96437,-3.946567 8.36059,-5.815449 14.17219,-6.024753 3.86968,-0.139365 6.86267,0.376739 9.89368,1.706036 4.31202,1.8911 8.27246,5.687847 10.26773,9.843317 1.56363,3.25654 2.06107,5.567 2.06689,9.6 0.006,4.05955 -0.47832,6.45701 -1.91944,9.50403 -3.87622,8.19574 -11.9543,12.62665 -21.57158,11.83224 z"
       id="path1207"
       inkscape:connector-curvature="0" />
    <path
       style="fill:#5f5f5f;fill-opacity:1;stroke-width:0.16"
       d="m 247.67776,135.50824 c 3.1013,-0.87349 5.55491,-2.13714 8.02552,-4.1333 3.45294,-2.78985 6.10717,-7.23703 7.10858,-11.91051 0.45993,-2.14645 0.39993,-5.36644 -0.14074,-7.55242 -1.0531,-4.25785 -2.80133,-7.3017 -5.93464,-10.3329 -3.04373,-2.944537 -6.79854,-4.841817 -10.96691,-5.541517 -5.61416,-0.94238 -11.92221,1.12455 -16.41704,5.379277 -4.49754,4.25729 -7.0776,10.65501 -6.48253,16.07456 0.9003,8.19934 6.42723,15.09978 14.1319,17.64386 2.36522,0.781 3.70048,0.96886 6.43586,0.90545 2.24099,-0.0519 2.76934,-0.11829 4.24,-0.5325 z"
       id="path1205"
       inkscape:connector-curvature="0" />
    <path
       style="fill:#040305;stroke-width:0.16"
       d="m 239.87224,126.18145 c -3.18886,-0.83548 -5.8503,-3.25078 -6.91264,-6.27333 -0.46803,-1.33163 -0.69235,-3.07349 -0.59406,-4.61277 0.18734,-2.9336 1.07352,-4.97436 2.98363,-6.87096 2.10118,-2.08632 4.17587,-2.87996 7.52859,-2.87996 3.35272,0 5.42741,0.79364 7.52859,2.87996 1.91011,1.8966 2.79629,3.93736 2.98363,6.87096 0.33788,5.29083 -2.68772,9.64495 -7.56974,10.89356 -1.64891,0.42172 -4.32269,0.41837 -5.948,-0.007 z"
       id="path1203"
       inkscape:connector-curvature="0" />
    <path
       style="fill:#ffffff;stroke-width:0.16"
       d="m 244.02368,125.31948 c 1.51306,-0.28989 2.36962,-0.63113 3.65408,-1.45575 3.00504,-1.92921 4.88552,-5.42455 4.57408,-8.50207 -0.47437,-4.68741 -4.82936,-8.75463 -9.37408,-8.75463 -4.54472,0 -8.89971,4.06722 -9.37408,8.75463 -0.31144,3.07752 1.56904,6.57286 4.57408,8.50207 1.41867,0.91078 2.78574,1.3988 4.66592,1.66566 0.0583,0.008 0.63426,-0.0862 1.28,-0.20991 z"
       id="path1201"
       inkscape:connector-curvature="0" />
    <path
       style="fill:#040305;stroke-width:0.16"
       d="m 93.597767,136.6375 c -2.490405,-0.33275 -5.392954,-1.2981 -7.461308,-2.48152 -6.796102,-3.88841 -10.616805,-10.615 -10.616805,-18.69155 0,-3.63236 0.668389,-6.64311 2.15081,-9.68828 2.819717,-5.792237 7.990086,-9.786197 14.524394,-11.219676 1.907215,-0.418399 7.313375,-0.414975 9.234492,0.0059 4.07885,0.893472 7.36331,2.594319 10.20598,5.285149 3.18881,3.018477 5.22207,6.718827 6.12416,11.145437 0.45137,2.21492 0.45137,6.72811 0,8.94303 -0.89232,4.37869 -2.62965,7.62679 -5.74654,10.74368 -2.91715,2.91715 -5.83795,4.55384 -10.01519,5.61207 -1.0345,0.26207 -1.90907,0.33351 -4.559997,0.37245 -1.804,0.0265 -3.531996,0.0145 -3.839996,-0.0266 z"
       id="path1199"
       inkscape:connector-curvature="0" />
    <path
       style="fill:#5f5f5f;fill-opacity:1;stroke-width:0.16"
       d="m 101.29311,135.08503 c 3.88644,-1.02729 6.71977,-2.65917 9.60153,-5.5301 3.11013,-3.09844 5.01144,-6.67943 5.83837,-10.99622 1.14732,-5.98924 -1.32499,-12.9599 -6.25001,-17.62184 -4.52004,-4.278597 -11.063557,-6.403329 -16.587558,-5.386112 -7.508304,1.382615 -13.609669,6.563712 -16.102392,13.673672 -0.871293,2.48518 -1.075124,3.69284 -1.066693,6.32 0.0066,2.06168 0.06918,2.64677 0.443843,4.1506 1.293142,5.19044 4.309827,9.53084 8.634853,12.4238 2.447589,1.63717 4.609284,2.55184 7.528068,3.18532 2.111562,0.45829 5.779152,0.35733 7.959989,-0.21912 z"
       id="path1197"
       inkscape:connector-curvature="0" />
    <path
       style="fill:#040305;stroke-width:0.16"
       d="m 93.792962,125.70163 c -3.424358,-0.8972 -5.960557,-3.24695 -7.077479,-6.5572 -0.482859,-1.43106 -0.610862,-4.55139 -0.255979,-6.24 0.71645,-3.40901 3.164386,-6.19068 6.498263,-7.38417 0.932979,-0.33399 1.319896,-0.37248 3.759996,-0.37407 2.53965,-0.002 2.79614,0.0261 3.868187,0.4181 2.31038,0.84484 4.41446,2.65196 5.43683,4.6695 0.85324,1.6838 1.04645,2.48395 1.12779,4.67064 0.13938,3.74693 -0.62695,5.90314 -2.90125,8.16323 -1.45802,1.44891 -2.65365,2.12579 -4.662437,2.63955 -1.64426,0.42054 -4.17686,0.41809 -5.793921,-0.006 z"
       id="path1195"
       inkscape:connector-curvature="0" />
    <path
       style="fill:#ffffff;stroke-width:0.16"
       d="m 99.495053,124.41216 c 1.337717,-0.45865 3.169907,-1.69893 4.188257,-2.83519 1.02849,-1.14759 1.96904,-3.08201 2.33023,-4.79254 0.26537,-1.25675 0.26524,-1.38274 -0.003,-2.62954 -0.84841,-3.94812 -3.72939,-6.92391 -7.623307,-7.87417 -1.35504,-0.33068 -2.0768,-0.32314 -3.44462,0.036 -3.302788,0.86712 -6.0807,3.38716 -7.113944,6.45357 -0.578827,1.71781 -0.669015,2.68278 -0.38211,4.08845 0.791362,3.87725 3.896834,7.07257 7.670894,7.89284 1.02081,0.22186 3.24277,0.0496 4.37728,-0.33939 z"
       id="path1193"
       inkscape:connector-curvature="0" />
    <path
       style="fill:#040305;stroke-width:0.16"
       d="m 119.87776,120.46043 c -0.32404,-0.0524 -0.36014,-0.14904 -0.36142,-0.96713 -0.0133,-8.49855 -0.43102,-10.30255 -4.02622,-17.38887 -0.76944,-1.51661 -1.895,-3.000967 -3.17236,-4.183607 -0.89252,-0.82635 -4.04425,-2.509437 -6.5233,-3.483578 -3.4777,-1.366562 -4.86743,-1.598199 -9.636697,-1.606219 -3.786391,-0.0064 -3.982708,0.009 -5.759996,0.450243 -4.826956,1.19844 -5.433605,1.541016 -9.767359,5.515634 -3.183982,2.920127 -4.63004,5.163217 -6.309734,9.787527 -0.335628,0.924 -0.762133,1.84092 -0.947792,2.03759 -0.522642,0.55365 -1.654245,0.70056 -2.693544,0.34969 -0.770999,-0.26028 -1.595269,-0.29087 -8.447964,-0.31347 -4.176483,-0.0138 -7.840505,-0.0145 -8.142269,-0.002 -0.390952,0.0166 -0.662301,-0.0903 -0.944008,-0.37203 l -0.395348,-0.39534 0.269655,-2.37236 c 0.148309,-1.30479 0.343582,-2.91235 0.433939,-3.57235 0.09036,-0.66 0.230248,-3.54 0.31087,-6.399997 0.173032,-6.138172 0.357967,-8.623527 0.769332,-10.339171 0.606507,-2.529507 1.769992,-6.240124 2.193353,-6.995102 1.320604,-2.35503 4.741361,-4.783702 8.55087,-6.070957 0.66,-0.223017 1.596,-0.483408 2.08,-0.578646 2.503485,-0.492616 11.857021,-0.652088 19.6,-0.334168 6.582223,0.270261 7.937145,0.253733 10.024955,-0.122291 2.14019,-0.385461 2.57721,-0.578125 3.863007,-1.703064 1.47684,-1.292071 2.3579,-2.639805 4.40916,-6.744528 1.05395,-2.109034 2.12026,-4.096852 2.36958,-4.417372 0.24931,-0.32052 1.02929,-1.427653 1.73329,-2.460293 4.56186,-6.691403 5.21202,-7.371623 9.6,-10.043743 0.528,-0.32153 1.32,-0.70417 1.76,-0.85031 0.44,-0.14615 0.872,-0.32108 0.96,-0.38874 0.28398,-0.21834 2.51768,-0.60391 4.08,-0.70426 0.836,-0.0537 3.572,-0.23527 6.08,-0.4035 6.56613,-0.44042 11.08298,-0.56406 12.19241,-0.33374 1.04221,0.21636 1.71629,0.83359 2.37732,2.17683 l 0.39027,0.79332 -0.0107,18.080004 c -0.006,9.944 -0.0584,19.016 -0.11676,20.16 -0.10385,2.036942 -0.25258,14.314438 -0.29655,24.479998 -0.0213,4.92533 -0.0385,5.19466 -0.45347,7.08365 -0.30551,1.3908 -0.52048,2.03111 -0.73692,2.19491 -0.22333,0.16901 -0.80089,0.2339 -2.14559,0.24107 -6.62208,0.0353 -22.5078,0.18858 -22.64,0.21846 -0.088,0.0199 -0.322,0.01 -0.52,-0.0221 z"
       id="path1191"
       inkscape:connector-curvature="0" />
    <path
       style="fill:#c00c17;fill-opacity:1;stroke-width:0.16"
       d="m 144.18095,107.62443 c 0.0568,-4.268 0.2265,-14.563998 0.37721,-22.879998 0.36074,-19.904446 0.40238,-34.879374 0.0994,-35.760004 -0.43206,-1.25601 -0.82883,-1.99355 -1.17093,-2.17664 -0.6788,-0.36329 -11.81243,0.0842 -18.10848,0.72784 -2.64239,0.27012 -2.92516,0.36668 -5.62043,1.91921 -2.06468,1.1893 -2.39447,1.44272 -4.36695,3.355533 -0.99315,0.96311 -2.03413,2.17213 -2.62227,3.04559 -0.53638,0.79666 -1.28198,1.88047 -1.65684,2.40847 -1.12167,1.579883 -3.41552,5.47103 -4.42084,7.499227 -1.33372,2.69072 -2.08176,3.939676 -3.51967,5.876582 -1.22339,1.647939 -1.28933,1.707386 -2.33615,2.105914 -1.231087,0.46868 -2.293197,0.798601 -3.557237,1.104982 -1.13385,0.274824 -10.316056,0.277134 -14.079995,0.0035 -3.473421,-0.252475 -12.896606,0.111378 -15.546646,0.600296 -2.485501,0.458562 -4.775725,1.406685 -6.451919,2.671013 -1.306456,0.98544 -1.397773,1.096065 -2.067526,2.50471 -0.914405,1.923203 -1.881696,4.789981 -2.397349,7.105064 -0.354631,1.592152 -0.703887,6.026952 -0.797668,10.128674 -0.04639,2.02906 -0.209999,4.457177 -0.398888,5.919997 -0.17613,1.364 -0.370551,3.03728 -0.432045,3.7184 l -0.111808,1.2384 7.510846,-1e-4 c 6.181653,-9e-5 7.650557,0.0419 8.300313,0.23749 0.982426,0.29567 0.995199,0.28391 1.731576,-1.59419 1.558112,-3.9739 3.478544,-6.99558 5.836744,-9.183747 1.769234,-1.64166 4.788484,-4.001343 6.251708,-4.885985 1.398857,-0.845728 4.526938,-1.704052 7.372661,-2.023011 2.409566,-0.270072 6.999786,-0.187366 8.925903,0.160826 2.29578,0.415016 4.18013,0.877944 5.21954,1.282283 1.11636,0.434277 5.27801,2.294965 5.4382,2.431442 0.097,0.08264 0.61656,0.465233 1.15459,0.850215 0.98369,0.70388 3.80187,3.77582 4.55758,4.967977 0.44793,0.70662 2.14597,5.07676 2.70434,6.96 0.85905,2.89732 1.38796,5.06944 1.51944,6.24 0.0642,0.572 0.14917,1.09448 0.18872,1.16108 0.0395,0.0666 5.08936,0.1026 11.22179,0.08 l 11.14989,-0.041 z"
       id="path1189"
       inkscape:connector-curvature="0" />
    <path
       style="fill:#040305;stroke-width:0.16"
       d="m 108.51093,75.357493 c -1.29162,-0.636578 -1.14714,-1.538959 0.71296,-4.453061 2.03137,-3.182398 5.27512,-7.96283 6.73143,-9.920318 0.68334,-0.91852 2.17678,-3.013383 3.31875,-4.655263 2.23663,-3.21572 2.84739,-3.826523 4.37928,-4.379663 0.49743,-0.17961 1.03598,-0.40225 1.1968,-0.49476 0.54182,-0.31167 4.32716,-0.94049 7.14028,-1.18614 1.53597,-0.13412 4.01997,-0.24386 5.52,-0.24386 l 2.72733,1e-5 0.48,0.59999 0.48,0.6 0.0467,11.877969 c 0.0325,8.264577 -0.006,11.975931 -0.12563,12.2 -0.17096,0.319446 -0.30062,0.322006 -16.12672,0.318392 -14.39059,-0.0033 -16.006,-0.02909 -16.4812,-0.263296 z"
       id="path1187"
       inkscape:connector-curvature="0" />
    <path
       style="fill:#ffffff;stroke-width:0.16"
       d="M 138.95776,63.188774 V 52.593111 l -0.34241,-0.342313 -0.34242,-0.34231 -5.02989,0.17183 c -4.7424,0.16201 -5.10691,0.1961 -6.37758,0.596623 -1.87071,0.58965 -2.82682,1.10771 -3.63387,1.96897 -0.85622,0.91374 -4.15274,5.250833 -5.30421,6.978521 -0.4692,0.704 -1.01471,1.46 -1.21224,1.68 -1.49439,1.664402 -6.63738,9.633258 -6.63738,10.284362 0,0.261372 0.83133,0.274988 14.44,0.236489 l 14.44,-0.04085 z"
       id="path1185"
       inkscape:connector-curvature="0" />
    <path
       style="fill:#040305;stroke-width:0.16"
       d="m 70.397768,116.95792 c -4.754741,-0.1701 -9.085888,-0.43252 -10.385891,-0.62928 -0.84376,-0.1277 -2.254109,-0.33755 -3.134109,-0.46633 -4.274359,-0.6255 -4.525289,-0.68219 -5.660705,-1.27884 -2.215166,-1.16403 -2.998822,-2.35891 -3.155478,-4.81132 -0.09427,-1.47585 -0.07256,-1.65249 0.308254,-2.50699 0.519256,-1.16516 1.101611,-1.51164 1.569517,-0.9338 0.300947,0.37165 0.29983,0.38253 -0.111221,1.08394 -0.46485,0.79321 -0.441042,1.46801 0.0946,2.68139 0.484329,1.09713 0.958848,1.45139 2.666469,1.9907 1.395368,0.44069 1.966046,0.52114 5.168559,0.72862 1.98,0.12827 4.968,0.27486 6.64,0.32574 1.672,0.0509 3.472,0.12346 4,0.1613 0.528,0.0378 1.716,0.11585 2.64,0.17336 2.192773,0.13648 2.4,0.26442 2.4,1.48177 0,0.80444 -0.05792,0.9804 -0.44,1.33677 -0.481078,0.44869 -1.064378,0.78765 -1.269482,0.73769 -0.07178,-0.0175 -0.670513,-0.0511 -1.330513,-0.0747 z"
       id="path1183"
       inkscape:connector-curvature="0" />
    <path
       style="fill:#040305;stroke-width:0.16"
       d="m 155.49583,112.70771 c -0.46539,-0.28303 -0.4922,-0.3497 -0.41522,-1.03271 0.0453,-0.40158 0.18014,-0.79214 0.29973,-0.86791 0.11958,-0.0758 0.75742,-0.1403 1.41742,-0.1434 1.9994,-0.009 11.93722,-0.29958 14.2,-0.41464 1.69042,-0.086 2.12,-0.15457 2.12,-0.33861 0,-0.17835 3.72014,-7.62566 3.9257,-7.85879 0.10112,-0.11469 0.8327,0.47608 1.01776,0.82186 0.21216,0.39643 0.38652,-0.0144 -2.91576,6.87092 l -1.20861,2.52 -0.68954,0.002 c -4.38991,0.014 -14.88097,0.36469 -15.93175,0.53249 -1.2293,0.1963 -1.35717,0.18987 -1.81973,-0.0914 z"
       id="path1181"
       inkscape:connector-curvature="0" />
    <path
       style="fill:#040305;stroke-width:0.16"
       d="m 155.90222,107.91929 c -0.29854,-0.48305 0.0613,-2.10609 0.50465,-2.27622 0.1209,-0.0464 3.48426,-0.13478 7.47413,-0.19642 l 7.25433,-0.11207 0.35121,0.4465 c 0.19317,0.24558 0.35122,0.63903 0.35122,0.87435 0,0.93992 0.22141,0.90518 -7.6,1.19246 -8.45528,0.31057 -8.18913,0.30829 -8.33554,0.0714 z"
       id="path1179"
       inkscape:connector-curvature="0" />
    <path
       style="fill:#040305;stroke-width:0.16"
       d="m 219.51776,103.4733 c -0.45176,-0.11078 -0.95936,-0.97221 -0.95974,-1.62875 -1.5e-4,-0.23094 -0.10359,-0.71276 -0.22988,-1.07071 -0.26859,-0.76126 -1.94484,-3.295267 -2.55161,-3.857297 -0.47275,-0.4379 -0.53432,-0.83703 -0.17509,-1.135162 0.63326,-0.52557 2.92947,1.585862 3.55237,3.266522 0.14504,0.39133 0.37625,0.85617 0.51382,1.032977 0.24175,0.31068 0.32987,0.24402 2.62754,-1.987487 1.30758,-1.26993 2.46683,-2.308961 2.57613,-2.308961 0.46731,0 1.20795,0.372101 1.22542,0.615651 0.0545,0.75981 -0.5717,1.78349 -1.42019,2.3217 -1.35467,0.85929 -3.87877,3.527207 -3.87877,4.099777 0,0.3018 -0.87994,0.74984 -1.28,0.65174 z"
       id="path1177"
       inkscape:connector-curvature="0" />
    <path
       style="fill:#040305;stroke-width:0.16"
       d="m 166.69635,98.803023 c -0.30902,-0.30902 -0.38027,-0.72804 -0.17614,-1.03583 0.0811,-0.12226 2.31011,-0.21263 7.18585,-0.29133 6.96967,-0.1125 7.07071,-0.10962 7.24,0.20672 0.28048,0.52407 0.20453,0.9775 -0.1883,1.12428 -0.198,0.074 -3.37563,0.17056 -7.06141,0.21463 -6.38699,0.0764 -6.71542,0.0661 -7,-0.21847 z"
       id="path1175"
       inkscape:connector-curvature="0" />
    <path
       style="fill:#040305;stroke-width:0.16"
       d="m 161.59776,94.239738 c -1.02726,-0.187836 -1.45201,-0.443511 -2.26148,-1.361264 -0.47219,-0.535351 -1.0599,-1.198517 -1.30604,-1.473704 -1.11193,-1.243178 -2.41811,-3.155053 -2.85447,-4.178135 -0.74605,-1.749195 -1.09164,-4.472904 -1.25895,-9.922203 -0.28594,-9.312835 -1.58032,-22.744491 -2.72914,-28.320004 -0.25385,-1.232 -0.50735,-2.53797 -0.56333,-2.90214 -0.24392,-1.58684 -4.42759,-5.12659 -6.77947,-5.73602 -1.58332,-0.41028 -4.78231,-0.54044 -14.56712,-0.5927 -10.3297,-0.0552 -9.50986,-0.12368 -14.70388,1.22852 -3.17504,0.82657 -3.18233,0.8281 -4.64017,0.97175 -1.18676,0.11694 -1.58783,-0.0179 -2.51327,-0.84496 -1.37668,-1.23033 -2.41968,-3.72889 -2.13908,-5.1243 0.16016,-0.79648 0.73081,-1.93223 1.25372,-2.49527 0.89053,-0.95886 3.88966,-2.11709 5.84363,-2.25674 0.62647,-0.0448 10.51186,-0.12394 21.96751,-0.17592 l 20.82846,-0.0945 5.01154,2.51162 c 2.75635,1.38139 5.19154,2.63783 5.41154,2.79209 0.83847,0.58794 9.08243,4.61832 9.94773,4.86335 0.87451,0.24763 3.00973,0.43247 11.25227,0.97408 2.112,0.13878 5.2557,0.35914 6.98598,0.48969 3.52444,0.26593 9.36813,0.47204 20.13402,0.71014 4.004,0.0885 9.44,0.23339 12.08,0.32186 6.89064,0.23091 12.8955,0.22799 22.58642,-0.011 7.28172,-0.17956 8.60456,-0.17737 9.18811,0.0152 1.06947,0.35295 1.61245,0.803 1.82808,1.5152 0.10657,0.352 1.72496,4.348 3.59643,8.880003 1.87146,4.532 3.8167,9.248005 4.32277,10.480005 0.50605,1.232 1.21667,2.932747 1.57915,3.779437 0.36246,0.846691 0.65904,1.685691 0.65904,1.864445 0,0.439571 -14.70062,15.285901 -18.42109,18.603672 l -2.82107,2.515734 -3.41893,0.09703 c -1.8804,0.05337 -6.83891,0.133738 -11.01891,0.178597 -4.18,0.04486 -10.732,0.117293 -14.56,0.16096 -3.828,0.04367 -15.05349,0.123194 -24.94554,0.176725 l -17.98553,0.09733 -2.17447,0.532885 c -1.19595,0.293087 -2.85846,0.714493 -3.69446,0.936458 -0.836,0.221965 -2.024,0.474321 -2.64,0.560792 -1.26889,0.17812 -5.87214,0.342387 -6.48,0.23124 z"
       id="path1173"
       inkscape:connector-curvature="0" />
    <path
       style="fill:#5165ae;fill-opacity:1;stroke-width:0.16"
       d="m 171.35776,91.581104 2.32,-0.532205 0.1087,-3.512233 c 0.0598,-1.931728 0.22175,-7.616234 0.35992,-12.632234 0.13818,-5.016 0.32368,-11.424 0.41224,-14.239998 0.4052,-12.884566 0.48383,-16.779316 0.3416,-16.921536 -0.48233,-0.48235 -10.19392,-5.82331 -14.66246,-8.06374 l -5.28,-2.64728 -14,0.10338 c -21.639,0.1598 -27.17356,0.23941 -27.89441,0.40126 -0.36607,0.0822 -0.86514,0.19136 -1.10903,0.24259 -0.41862,0.0879 -3.5527,2.47135 -4.15656,3.16099 -0.154,0.17588 -0.28,0.53492 -0.28,0.79787 0,0.91722 0.91185,2.29576 1.6,2.4189 0.46124,0.0825 3.36932,-0.53742 6.72,-1.43261 l 2.32,-0.61983 11.52,0.005 c 12.75803,0.005 11.78266,-0.0631 15.64383,1.09508 1.6669,0.50001 2.23518,0.84076 4.35317,2.61023 1.70643,1.42565 2.71003,2.76978 2.89306,3.87471 0.0524,0.31644 0.268,1.51134 0.47907,2.65534 0.39127,2.12066 0.77118,4.869103 0.951,6.880003 0.0551,0.616 0.16594,1.48 0.24634,1.92 0.0804,0.44 0.25633,2.384 0.39096,4.320001 0.13463,1.936 0.31428,4.24 0.39922,5.12 0.0849,0.88 0.26376,4.66 0.39737,8.4 0.13362,3.74 0.27583,7.16 0.31604,7.6 0.0402,0.44 0.36356,1.686312 0.71857,2.769584 0.77778,2.373312 1.70696,3.835078 3.59694,5.65861 1.33176,1.284937 1.35984,1.298102 3.82298,1.791744 0.36436,0.07302 5.45118,-0.759821 7.47145,-1.223266 z"
       id="path1171"
       inkscape:connector-curvature="0" />
    <path
       style="fill:#5165ae;fill-opacity:1;stroke-width:0.16"
       d="m 176.89182,90.334733 c 0.33044,-0.121327 0.33524,-0.207381 0.44293,-7.936479 0.12503,-8.973441 0.36435,-23.879323 0.5108,-31.813826 l 0.10042,-5.44 -0.61259,-0.18818 c -0.33693,-0.10349 -0.64532,-0.15546 -0.68528,-0.11548 -0.0836,0.0836 -0.10554,0.58776 -0.23917,5.50366 -0.24394,8.972723 -0.58787,21.87153 -0.72743,27.280004 -0.084,3.256 -0.20121,7.519094 -0.26044,9.473542 l -0.10768,3.553543 0.62219,-0.09706 c 0.34221,-0.05339 0.77251,-0.152259 0.95625,-0.21972 z"
       id="path1169"
       inkscape:connector-curvature="0" />
    <path
       style="fill:#5165ae;fill-opacity:1;stroke-width:0.16"
       d="m 197.01962,90.094037 c 0.0545,-0.141939 0.16984,-3.221666 0.2564,-6.843839 0.0866,-3.622171 0.23011,-8.529766 0.31899,-10.905766 0.0889,-2.376 0.26827,-8.1 0.39862,-12.719998 0.13037,-4.620003 0.27696,-9.312406 0.32579,-10.427566 0.0811,-1.85141 0.064,-2.03481 -0.19644,-2.11096 -0.15687,-0.0459 -1.14922,-0.16121 -2.20522,-0.25632 -1.056,-0.0951 -2.568,-0.24503 -3.36,-0.33318 -4.74323,-0.52791 -12.71539,-1.16993 -12.85043,-1.03488 -0.0564,0.0564 -0.18899,4.40009 -0.29469,9.652703 -0.1057,5.252613 -0.26787,12.646201 -0.36038,16.430201 -0.0925,3.784 -0.21717,9.523253 -0.27703,12.753896 l -0.10883,5.873896 1.58568,0.04756 c 0.87213,0.02616 4.97931,0.06663 9.12709,0.08994 6.81509,0.0383 7.55094,0.01753 7.64045,-0.215691 z"
       id="path1167"
       inkscape:connector-curvature="0" />
    <path
       style="fill:#5165ae;fill-opacity:1;stroke-width:0.16"
       d="m 200.56222,77.144432 c 0.22967,-6.336 0.48093,-12.996 0.55837,-14.8 0.0774,-1.803998 0.18274,-4.324001 0.23399,-5.600001 0.0512,-1.276 0.16755,-3.81906 0.25844,-5.651243 0.18506,-3.72989 0.16684,-3.74125 0.16684,-3.74125 l -1.59053,-0.0475 -0.0969,1.8 c -0.35915,6.673703 -0.48793,10.409363 -0.82332,23.880004 -0.046,1.848 -0.15269,5.772 -0.23706,8.72 -0.0844,2.948 -0.15362,6.098 -0.15386,7 v 1.64 l 1.18683,-0.0084 c 0.11181,-4.811818 0.35423,-9.262781 0.4972,-13.19161 z"
       id="path1165"
       inkscape:connector-curvature="0"
       sodipodi:nodetypes="ccccccccccccc" />
    <path
       style="fill:#5165ae;fill-opacity:1;stroke-width:0.16"
       d="m 219.69891,90.045165 c 0.10898,-0.108533 0.28163,-3.652909 0.77648,-15.940733 0.17365,-4.312 0.39159,-9.568 0.48431,-11.68 0.16596,-3.780501 0.43016,-10.934754 0.4963,-13.440004 l 0.0338,-1.28 -4.38601,-0.098 c -2.41231,-0.0539 -6.47927,-0.15211 -9.03767,-0.21828 l -4.65166,-0.12029 -0.19466,4.77827 c -0.16653,4.087443 -0.54926,14.413347 -1.14377,30.858285 -0.0795,2.2 -0.14768,4.766843 -0.15144,5.704094 l -0.007,1.704096 8.84,-0.08336 c 4.862,-0.04585 8.88552,-0.128691 8.94115,-0.184096 z"
       id="path1163"
       inkscape:connector-curvature="0" />
    <path
       style="fill:#5165ae;fill-opacity:1;stroke-width:0.16"
       d="m 222.91264,87.864432 c 0.11072,-2.158619 0.46864,-14.889504 0.7647,-27.199998 0.0783,-3.256003 0.1918,-7.491263 0.25216,-9.411696 l 0.10978,-3.49168 -1.08152,0.011 -0.10754,1.93239 c -0.0982,1.68077 -0.38785,9.906326 -0.76902,21.840004 -0.39494,12.36533 -0.43285,18.582653 -0.43285,18.582653 l 1.20821,0.01934 z"
       id="path1161"
       inkscape:connector-curvature="0"
       sodipodi:nodetypes="cccccccccc" />
    <path
       style="fill:#5165ae;fill-opacity:1;stroke-width:0.16"
       d="m 236.81662,90.024824 5.53887,-3.2e-4 0.10352,-3.48 c 0.21563,-7.24876 0.42649,-15.07539 0.58517,-21.72 0.0904,-3.784 0.2299,-9.220003 0.31008,-12.080003 0.0802,-2.860003 0.0937,-5.252473 0.03,-5.316613 -0.0637,-0.0641 -2.48967,-0.0111 -5.39114,0.1178 -2.90147,0.12893 -6.84139,0.2354 -8.75539,0.23661 -1.914,0.001 -3.48285,0.0202 -3.48634,0.0422 -0.004,0.022 -0.21672,5.692003 -0.47387,12.600006 -0.25713,6.908002 -0.61632,16.361591 -0.79817,21.007976 -0.18186,4.646388 -0.28149,8.527519 -0.2214,8.624738 0.0775,0.125464 1.11199,0.14648 3.56452,0.07242 1.9004,-0.05739 5.94774,-0.10452 8.99412,-0.104736 z"
       id="path1159"
       inkscape:connector-curvature="0" />
    <path
       style="fill:#5165ae;fill-opacity:1;stroke-width:0.16"
       d="m 245.75805,89.757059 c 0.0668,-0.07295 0.17075,-5.388627 0.23093,-11.812627 0.0602,-6.424 0.1667,-15.892 0.23673,-21.040001 0.07,-5.148003 0.0922,-9.453883 0.0493,-9.568623 -0.0472,-0.12619 -0.27546,-0.1894 -0.57764,-0.16 l -0.49961,0.0486 -0.10304,4.72 c -0.0567,2.596003 -0.18578,7.888006 -0.2869,11.760004 -0.38347,14.68337 -0.61552,26.085048 -0.5336,26.218285 0.0999,0.162446 1.30661,0.02772 1.48383,-0.165658 z"
       id="path1157"
       inkscape:connector-curvature="0" />
    <path
       style="fill:#5165ae;fill-opacity:1;stroke-width:0.16"
       d="m 248.48643,88.925125 c 0.6236,-0.402659 16.96226,-16.626271 17.07475,-16.954511 0.0449,-0.13102 -1.51249,-3.947139 -3.60204,-8.826182 -1.6597,-3.875361 -4.18509,-9.922461 -5.96362,-14.280004 l -0.83262,-2.04 -0.58258,8e-4 c -1.47483,0.002 -6.67083,0.34476 -6.76094,0.44589 -0.15298,0.17169 -0.32896,42.113292 -0.17671,42.113292 0.0728,0 0.45253,-0.206688 0.84376,-0.459308 z"
       id="path881"
       inkscape:connector-curvature="0" />
  </g>
  <g
     inkscape:groupmode="layer"
     id="layer1"
     inkscape:label="Layer 1"
     transform="translate(-13.019249,-27.286533)" />
</svg>
